<svg xmlns="http://www.w3.org/2000/svg" viewBox="0 0 160 118">
  <defs>
    <linearGradient id="wall" x2="0" y2="1"><stop stop-color="#dccba2"/><stop offset=".6" stop-color="#ac9d79"/><stop offset="1" stop-color="#726b58"/></linearGradient>
    <linearGradient id="roof" x2="0" y2="1"><stop stop-color="#a47044"/><stop offset="1" stop-color="#5b3c31"/></linearGradient>
  </defs>
  <ellipse cx="82" cy="103" rx="70" ry="13" fill="#17290e" opacity=".42"/>
  <path d="M10 86 70 60l79 26-65 27Z" fill="#6c6b45" stroke="#353f28" stroke-width="2"/>
  <path d="M18 76 82 54l61 22-60 24Z" fill="#c2ad7d" stroke="#544f3c" stroke-width="3"/>
  <path d="M18 76v17l66 20V99Zm66 23v14l59-20V76Z" fill="#827763" stroke="#4f493e" stroke-width="2"/>
  <path d="M30 75V53l14-5v32zm84 3V48l16 6v22z" fill="url(#wall)" stroke="#655b48" stroke-width="2"/>
  <path d="M27 55 37 35l11 19Zm83-5 12-21 13 24Z" fill="url(#roof)" stroke="#513e35" stroke-width="2"/>
  <path d="M38 70V39l33-13 42 14v39L80 91Z" fill="url(#wall)" stroke="#635b4c" stroke-width="3"/>
  <path d="M33 41 67 17l48 21-38 14Z" fill="url(#roof)" stroke="#554036" stroke-width="3"/>
  <path d="M72 49v39l40-11V41Z" fill="#887f6b" opacity=".8"/>
  <path d="M66 65v20l17 5V67q-7-12-17-2Z" fill="#4a3931" stroke="#dfc597" stroke-width="2"/>
  <path d="M43 56h7v11h-7zm55-6 6-2v12l-6 2Z" fill="#3e4541"/>
  <path d="M21 74 18 70l11-4v11zm107-1 15 3-5 5-10-3Z" fill="#e2d0a6"/>
  <path d="M86 20V3" stroke="#403624" stroke-width="2"/><path d="M87 3q12 2 17 6-11 7-17 5Z" fill="#b13e32" stroke="#542c22"/>
  <path d="M16 91 83 109l62-19" fill="none" stroke="#e4c895" opacity=".45" stroke-width="2"/>
</svg>
